<svg xmlns="http://www.w3.org/2000/svg" viewBox="0 0 100 140" width="100" height="140">
  <rect x="30" y="120" width="40" height="8" rx="2" fill="#8B6914"/>
  <rect x="25" y="128" width="50" height="6" rx="2" fill="#6B4F0F"/>
  <rect x="42" y="100" width="16" height="22" fill="#C0A030"/>
  <path d="M22 35 Q18 65 28 88 Q38 105 50 105 Q62 105 72 88 Q82 65 78 35 Z" fill="#C0C0C0"/>
  <path d="M32 40 Q30 62 35 78" stroke="white" strokeWidth="2" fill="none" opacity="0.5"/>
  <path d="M22 48 Q8 53 10 72 Q12 88 28 86" stroke="#999" strokeWidth="4" fill="none"/>
  <path d="M78 48 Q92 53 90 72 Q88 88 72 86" stroke="#999" strokeWidth="4" fill="none"/>
  <circle cx="50" cy="20" r="12" fill="#C0C0C0" stroke="#999" strokeWidth="2"/>
  <text x="50" y="25" textAnchor="middle" fill="white" fontSize="10" fontWeight="bold">★</text>
</svg>
