<svg xmlns="http://www.w3.org/2000/svg" viewBox="0 0 100 140" width="100" height="140">
  <!-- Base -->
  <rect x="30" y="120" width="40" height="8" rx="2" fill="#8B6914"/>
  <rect x="25" y="128" width="50" height="6" rx="2" fill="#6B4F0F"/>
  <!-- Stem -->
  <rect x="44" y="100" width="12" height="22" fill="#D4AF37"/>
  <!-- Cup body -->
  <path d="M20 40 Q15 70 25 90 Q35 105 50 105 Q65 105 75 90 Q85 70 80 40 Z" fill="#D4AF37"/>
  <!-- Cup shine -->
  <path d="M30 45 Q28 65 33 80" stroke="#FFE066" strokeWidth="3" fill="none" opacity="0.6"/>
  <!-- Handles -->
  <path d="M20 50 Q5 55 8 75 Q10 90 25 88" stroke="#B8860B" strokeWidth="4" fill="none"/>
  <path d="M80 50 Q95 55 92 75 Q90 90 75 88" stroke="#B8860B" strokeWidth="4" fill="none"/>
  <!-- Star on top -->
  <polygon points="50,10 53,20 63,20 55,27 58,37 50,31 42,37 45,27 37,20 47,20" fill="#FFD700"/>
</svg>
